# xmcd CD database file
#
# Track frame offsets:
#	182
#	14517
#	26250
#	39617
#	49185
#	61047
#	72182
#	85385
#	96110
#	105777
#	119397
#	131207
#	142447
#	154682
#	165812
#	178407
#	192760
#	202525
#	212802
#	225730
#	238262
#	249320
#	261845
#	274700
#
# Disc length: 3799 seconds
#
# Revision: 3
# Processed by: cddbd v1.5.1PL0 Copyright (c) Steve Scherf et al.
# Submitted via: CDex 1.50
#
DISCID=4c0ed518
DTITLE=Various Artist - Heartbreak USA
DYEAR=1993
DGENRE=Country
TTITLE0=Kitty Wells - It wasn't God who made the Honky Tonk Angels
TTITLE1=Donna Fargo - The Happiest Girl in the whole USA
TTITLE2=Billy Joe Spears - Fever
TTITLE3=Anne Murray - Some Birds
TTITLE4=Dolly  Parton - Letter to Heaven
TTITLE5=Kitty Wells - Heartbreak USA
TTITLE6=Donna Fargo - Daddy
TTITLE7=Billy Joe Spears - I'm so lonesome I could cry
TTITLE8=Anne Murray - It's all over
TTITLE9=Kitty Wells - Making Beleave
TTITLE10=Billy Joe Spears - Ease the want in me
TTITLE11=Donna Fargo - Whishfull Thinking
TTITLE12=Dolly  Parton - Two little Orphans
TTITLE13=Anne Murray - Last Thing on my mind
TTITLE14=Kitty Wells - Mommy for a Day
TTITLE15=Billy Joe Spears - I'll never be free
TTITLE16=Donna Fargo - Sticks and Stones
TTITLE17=Dolly  Parton - Release me
TTITLE18=Anne Murray - Buffalo in the Park
TTITLE19=Billy Joe Spears - He's on the run again
TTITLE20=Donna Fargo - All that's keeping me alive
TTITLE21=Kitty Wells - As long as I live
TTITLE22=Dolly  Parton - Little Blossom
TTITLE23=Billy Joe Spears - It makes no different now
EXTD=YEAR: 1993
EXTT0=
EXTT1=
EXTT2=
EXTT3=
EXTT4=
EXTT5=
EXTT6=
EXTT7=
EXTT8=
EXTT9=
EXTT10=
EXTT11=
EXTT12=
EXTT13=
EXTT14=
EXTT15=
EXTT16=
EXTT17=
EXTT18=
EXTT19=
EXTT20=
EXTT21=
EXTT22=
EXTT23=
PLAYORDER=
